<?xml version="1.0" encoding="utf-8"?>
<svg xmlns="http://www.w3.org/2000/svg" viewBox="0 0 50 50" fill="#000000"><path d="M 0 7 L 0 9.78125 C 3.011719 12.402344 20.289063 27.464844 21.65625 28.65625 C 23.0625 29.882813 24.464844 30 25 30 C 25.535156 30 26.9375 29.882813 28.34375 28.65625 C 29.761719 27.421875 48.046875 11.480469 50 9.78125 L 50 7 Z M 0 12.4375 L 0 37.53125 L 15.125 25.59375 C 10.222656 21.328125 3.230469 15.25 0 12.4375 Z M 50 12.4375 C 46.949219 15.09375 39.847656 21.265625 34.875 25.59375 L 50 37.5 Z M 16.65625 26.9375 L 0 40.0625 L 0 43 L 50 43 L 50 40.03125 L 33.34375 26.9375 C 31.40625 28.625 30.011719 29.847656 29.65625 30.15625 C 27.738281 31.824219 25.757813 32 25 32 C 24.242188 32 22.261719 31.828125 20.34375 30.15625 C 19.992188 29.851563 18.597656 28.628906 16.65625 26.9375 Z" fill="#000000"/></svg>
